# xmcd
#
# Track frame offsets: 
#        150
#        19307
#        39953
#        64831
#        89922
#        108324
#        130998
#        157914
#        180163
#        199071
#
# Disc length: 2956 seconds
#
# Revision: 0
# Processed by: cddbd v1.5.2PL0 Copyright (c) Steve Scherf et al.
# Submitted via: ExactAudioCopy v1.0b3
#
DISCID=7f0b8a0a
DTITLE=Mong Thi - Hanh Phuc Quanh Day
DYEAR=1999
DGENRE=
TTITLE0=Hanh phuc quanh day
TTITLE1=Chuyen dem qua
TTITLE2=Hoang hon mau tim
TTITLE3=Tinh ca dat phuong Nam
TTITLE4=Neu phai yeu anh
TTITLE5=Nguoi da thay long
TTITLE6=Sao long con thuong
TTITLE7=Toi buoc vao yeu
TTITLE8=Xin tra toi ve
TTITLE9=Yeu la chet trong long
EXTD=
EXTT0=
EXTT1=
EXTT2=
EXTT3=
EXTT4=
EXTT5=
EXTT6=
EXTT7=
EXTT8=
EXTT9=
PLAYORDER=
